<svg width="580" height="400" xmlns="http://www.w3.org/2000/svg">
 <!-- Created with Method Draw - http://github.com/duopixel/Method-Draw/ -->
 <g>
  <title>background</title>
  <rect fill="#e87a7a" id="canvas_background" height="402" width="582" y="-1" x="-1"/>
  <g display="none" overflow="visible" y="0" x="0" height="100%" width="100%" id="canvasGrid">
   <rect fill="url(#gridpattern)" stroke-width="0" y="0" x="0" height="100%" width="100%"/>
  </g>
 </g>
 <g>
  <title>Layer 1</title>
  <path opacity="0.12" transform="rotate(-33.36553955078125 79.26755523681639,67.3099594116211) " id="svg_1" d="m54.166373,81.32674l50.164136,0.017056l-1.627838,2.142573l-46.889241,-0.051168l-1.647059,-2.108462l0.000002,0zm0.344733,-28.501073l49.493819,-0.051168l1.436366,2.197952l-52.385725,0.017056l1.45554,-2.163841zm-4.884436,14.281504l59.224362,-0.051168l-0.076554,2.197954l-59.109504,-0.034111l-0.038303,-2.112675zm59.273387,0.203859c0,14.55097 -13.294544,26.388333 -29.638432,26.388333c-16.336827,0 -29.628893,-11.839502 -29.628893,-26.388333c0,-14.548902 13.294469,-26.386262 29.628893,-26.386262c16.34389,-0.002138 29.638432,11.837361 29.638432,26.386262zm-29.636105,-28.501075c-17.640924,0 -31.996393,12.784385 -31.996393,28.498932c0,15.716688 14.355471,28.501071 31.996393,28.501071c17.650529,0 32.003602,-12.784383 32.003602,-28.501071c0,-15.714547 -14.353071,-28.498932 -32.003602,-28.498932zm8.979086,28.501075c0,15.548923 -4.730347,26.388333 -8.979086,26.388333c-4.243932,0 -8.974204,-10.83941 -8.974204,-26.388333c0,-15.553204 4.72794,-26.386262 8.974204,-26.386262c4.246341,-0.002138 8.979086,10.833058 8.979086,26.386262zm-8.979086,-28.501075c-7.369603,0 -11.346508,14.684716 -11.346508,28.498932c0,13.818433 3.976905,28.501071 11.346508,28.501071c7.369678,0 11.35379,-14.684774 11.35379,-28.501071c-0.002402,-13.814216 -3.984112,-28.498932 -11.35379,-28.498932zm21.028976,28.501075c0,14.55097 -9.436822,26.388333 -21.028976,26.388333c-11.589745,0 -21.021767,-11.839502 -21.021767,-26.388333c0,-14.548902 9.432022,-26.386262 21.021767,-26.386262c11.592154,-0.002138 21.028976,11.837361 21.028976,26.386262zm-21.028976,-28.501075c-12.896319,0 -23.394069,12.784385 -23.394069,28.498932c0,15.716688 10.49775,28.501071 23.394069,28.501071c12.901124,0 23.396545,-12.784383 23.396545,-28.501071c0,-15.714547 -10.49542,-28.498932 -23.396545,-28.498932z" stroke-width="0" stroke="#f2f2e3" fill="#e8efef"/>
  <path opacity="0.12" id="svg_3" d="m212.818532,50.697927c-9.840337,0 -17.809879,7.391798 -17.809879,16.51877c0,9.120678 7.969542,16.516672 17.809879,16.516672c9.831288,0 17.805355,-7.395995 17.805355,-16.516672c0.002262,-9.126972 -7.969542,-16.51877 -17.805355,-16.51877zm0,28.841232c-7.338403,-0.016785 -13.269751,-5.518146 -13.287848,-12.320363c0.015835,-6.804315 5.949445,-12.307774 13.287848,-12.32456c7.333879,0.016785 13.265227,5.520244 13.281062,12.32456c-0.015835,6.802217 -5.947183,12.303578 -13.281062,12.320363zm0,-29.946959c1.250967,0 2.262146,-0.939973 2.262146,-2.100253l0,-10.178147c-0.004524,-1.160279 -1.013442,-2.098154 -2.262146,-2.098154c-1.250967,0 -2.264409,0.942071 -2.262146,2.102351l0,10.176049c0,1.156083 1.011179,2.098154 2.262146,2.098154zm7.268277,1.338623c0.282768,0.111202 0.576847,0.15946 0.86414,0.161558c0.891286,0 1.730542,-0.48887 2.092485,-1.296659l4.198544,-9.406027c0.475051,-1.072157 -0.070127,-2.297479 -1.223821,-2.74019c-1.155957,-0.442711 -2.479313,0.065043 -2.958888,1.135102l-4.196282,9.408125c-0.477313,1.070059 0.070127,2.297479 1.223821,2.738092zm6.164349,3.820739c0.441119,0.407042 1.020228,0.614759 1.599338,0.614759s1.158219,-0.205619 1.599338,-0.614759l7.759162,-7.202964c0.884499,-0.81828 0.882237,-2.146412 0,-2.968889c-0.886761,-0.81828 -2.3187,-0.81828 -3.200937,0.004196l-7.7569,7.198768c-0.884499,0.820378 -0.884499,2.14851 0,2.968889zm4.123893,5.715373c0.357419,0.807789 1.2012,1.294561 2.087961,1.294561c0.287293,0 0.581372,-0.052454 0.866402,-0.163656l10.134416,-3.896273c1.155957,-0.442711 1.703396,-1.672229 1.223821,-2.742288s-1.800669,-1.577812 -2.956625,-1.133003l-10.136678,3.896273c-1.153695,0.444809 -1.698872,1.674327 -1.219297,2.744386zm14.679068,4.63902l-10.973672,0.002098c-1.248705,0 -2.262146,0.939973 -2.257622,2.100253c0,1.160279 1.011179,2.096056 2.257622,2.096056l10.975935,-0.004196c1.250967,0 2.259884,-0.942071 2.259884,-2.098154c0,-1.160279 -1.013442,-2.100253 -2.262146,-2.096056zm-1.578978,11.598598l-10.13894,-3.889978c-1.158219,-0.444809 -2.481575,0.062945 -2.956625,1.135102c-0.477313,1.072157 0.070127,2.299577 1.223821,2.744386l10.13894,3.889978c0.28503,0.107006 0.579109,0.157362 0.866402,0.157362c0.889024,0 1.730542,-0.486772 2.092485,-1.294561c0.475051,-1.072157 -0.074651,-2.301675 -1.226083,-2.742288zm-14.011735,2.964692c-0.884499,-0.820378 -2.314176,-0.820378 -3.198675,0.002098c-0.884499,0.81828 -0.882237,2.144314 0,2.964692l7.768211,7.194572c0.441119,0.40914 1.017966,0.614759 1.597075,0.614759s1.160481,-0.205619 1.6016,-0.614759c0.884499,-0.822477 0.879975,-2.150608 0,-2.968889l-7.768211,-7.192474zm-6.404137,4.957939c-0.477313,-1.072157 -1.800669,-1.577812 -2.956625,-1.135102c-1.153695,0.444809 -1.701134,1.672229 -1.221559,2.744386l4.207592,9.399732c0.359681,0.807789 1.2012,1.294561 2.092485,1.294561c0.289555,0 0.583634,-0.050356 0.866402,-0.15946c1.155957,-0.442711 1.701134,-1.672229 1.221559,-2.746484l-4.209855,-9.397634zm-10.218115,0.21611c-1.250967,0 -2.262146,0.939973 -2.262146,2.098154l0.009049,10.178147c0,1.160279 1.015704,2.096056 2.262146,2.096056c1.250967,0 2.262146,-0.939973 2.257622,-2.098154l-0.006786,-10.180246c0,-1.153985 -1.015704,-2.096056 -2.259884,-2.093958zm-7.275063,-1.334426c-1.153695,-0.440612 -2.474788,0.065043 -2.954363,1.139298l-4.189495,9.406027c-0.475051,1.072157 0.074651,2.299577 1.228346,2.742288c0.282768,0.109104 0.574585,0.15946 0.86414,0.15946c0.886761,0 1.730542,-0.490968 2.090223,-1.298758l4.191757,-9.410223c0.477313,-1.070059 -0.074651,-2.295381 -1.230608,-2.738092zm-6.166611,-3.812347c-0.886761,-0.820378 -2.3187,-0.816182 -3.200937,0.004196l-7.750114,7.202964c-0.884499,0.822477 -0.879975,2.146412 0.004524,2.968889c0.441119,0.407042 1.017966,0.612661 1.597075,0.612661c0.581372,0 1.160481,-0.205619 1.6016,-0.614759l7.752376,-7.205063c0.879975,-0.820378 0.879975,-2.14851 -0.004524,-2.968889zm-4.126155,-5.709078c-0.481837,-1.067961 -1.802931,-1.575714 -2.956625,-1.133003l-10.132154,3.904666c-1.155957,0.444809 -1.701134,1.674327 -1.221559,2.744386c0.361943,0.807789 1.2012,1.292463 2.090223,1.292463c0.287293,0 0.583634,-0.050356 0.866402,-0.15946l10.132154,-3.904666c1.151433,-0.449005 1.698872,-1.676425 1.221559,-2.744386zm-1.461347,-6.739272c0,-1.160279 -1.011179,-2.096056 -2.262146,-2.096056l-10.973672,0.012589c-1.250967,0 -2.264409,0.939973 -2.259884,2.100253c0.002262,1.156083 1.015704,2.098154 2.262146,2.093958l10.975935,-0.012589c1.248705,0 2.262146,-0.94417 2.257622,-2.098154zm-11.663627,-9.489953l10.145727,3.881586c0.282768,0.111202 0.574585,0.15946 0.861878,0.15946c0.889024,0 1.732804,-0.486772 2.092485,-1.296659c0.479575,-1.072157 -0.072389,-2.301675 -1.230608,-2.74019l-10.141203,-3.881586c-1.155957,-0.440612 -2.47705,0.067141 -2.954363,1.1372c-0.479575,1.072157 0.074651,2.295381 1.226083,2.74019zm14.009473,-2.975183c0.441119,0.404944 1.015704,0.610563 1.594813,0.610563s1.160481,-0.205619 1.603862,-0.618956c0.884499,-0.816182 0.879975,-2.146412 -0.009049,-2.96679l-7.768211,-7.184081c-0.882237,-0.81828 -2.3187,-0.814084 -3.198675,0.006294c-0.884499,0.81828 -0.879975,2.14851 0.004524,2.96679l7.772735,7.186179zm6.395088,-4.966332c0.361943,0.805691 1.203462,1.290365 2.087961,1.290365c0.289555,0 0.583634,-0.052454 0.868664,-0.161558c1.153695,-0.444809 1.703396,-1.674327 1.221559,-2.742288l-4.216641,-9.397634c-0.479575,-1.070059 -1.805193,-1.575714 -2.958888,-1.130905c-1.153695,0.446907 -1.698872,1.676425 -1.219297,2.744386l4.216641,9.397634z" fill-opacity="null" stroke-opacity="null" stroke-width="0" stroke="#f2f2e3" fill="#e8efef"/>
  <path opacity="0.12" id="svg_4" d="m359.45866,81.608264l-1.779992,-5.676718c0.521643,-0.416946 1.011255,-0.863078 1.473412,-1.340481l6.225396,1.621919c0.656629,-0.871417 1.221743,-1.797037 1.72737,-2.758097l-4.633012,-4.08607c0.221927,-0.600402 0.414111,-1.211228 0.551386,-1.840816l6.243699,-1.425955c0.045758,-0.525352 0.089228,-1.052788 0.089228,-1.590649s-0.045758,-1.063212 -0.089228,-1.588564l-6.243699,-1.425955c-0.139562,-0.629588 -0.331747,-1.240414 -0.551386,-1.840816l4.6353,-4.08607c-0.507915,-0.958976 -1.073029,-1.88668 -1.729658,-2.758097l-6.225396,1.619835c-0.459869,-0.475318 -0.951769,-0.92145 -1.473412,-1.340481l1.779992,-5.674633c-0.956345,-0.596233 -1.974464,-1.113245 -3.029189,-1.573971l-4.484298,4.223662c-0.656629,-0.202219 -1.329274,-0.375251 -2.020222,-0.50242l-1.562641,-5.691311c-0.578841,-0.03961 -1.155393,-0.081304 -1.745673,-0.081304s-1.166833,0.041695 -1.743385,0.081304l-1.564929,5.691311c-0.690948,0.127168 -1.361305,0.300201 -2.020222,0.50242l-4.484298,-4.223662c-1.052437,0.466979 -2.068268,0.981908 -3.024614,1.580225l1.779992,5.674633c-0.521643,0.416946 -1.013543,0.865163 -1.471124,1.338396l-6.227684,-1.621919c-0.656629,0.871417 -1.221743,1.799121 -1.72737,2.760182l4.6353,4.08607c-0.219639,0.600402 -0.411823,1.211228 -0.551386,1.840816l-6.245987,1.425955c-0.04347,0.525352 -0.089228,1.052788 -0.089228,1.588564s0.045758,1.063212 0.089228,1.590649l6.245987,1.425955c0.139562,0.629588 0.331747,1.240414 0.551386,1.840816l-4.6353,4.08607c0.505628,0.958976 1.070741,1.88668 1.72737,2.758097l6.227684,-1.621919c0.457581,0.477403 0.949482,0.92145 1.471124,1.340481l-1.779992,5.676718c0.956345,0.596233 1.974464,1.111161 3.026901,1.573971l4.484298,-4.223662c0.658917,0.202219 1.329274,0.377336 2.020222,0.50242l1.564929,5.689226c0.576553,0.041695 1.155393,0.081304 1.745673,0.081304s1.166833,-0.041695 1.745673,-0.081304l1.562641,-5.689226c0.690948,-0.127168 1.363593,-0.302286 2.020222,-0.50242l4.484298,4.223662c1.050149,-0.466979 2.068268,-0.981908 3.024614,-1.57814zm-12.839736,-10.008786c-4.294402,0 -7.776597,-3.172958 -7.776597,-7.085995s3.482195,-7.08391 7.776597,-7.08391s7.774309,3.170873 7.774309,7.08391s-3.479907,7.085995 -7.774309,7.085995zm35.444261,14.812002c0.04347,-1.140347 -0.137274,-2.301541 -0.526219,-3.448142l2.846157,-3.696225c-0.430127,-0.729655 -0.915163,-1.421785 -1.466549,-2.051374l-4.854939,0.927705c-0.979224,-0.758841 -2.093435,-1.350905 -3.285435,-1.774105l-1.397911,-4.334152c-0.883132,-0.141762 -1.777704,-0.218897 -2.683715,-0.220981l-2.228422,4.036036c-0.638326,0.112575 -1.276652,0.266845 -1.903539,0.485742c-0.587992,0.204303 -1.13709,0.45864 -1.663309,0.735909l-4.589542,-1.707393c-0.679508,0.546199 -1.299531,1.136178 -1.860069,1.776189l2.075132,4.102747c-0.592568,1.031941 -0.999816,2.143102 -1.187424,3.304296l-4.326433,2.209813c0.04347,0.808875 0.173881,1.61775 0.375217,2.42871l4.813757,1.081975c0.528507,1.092398 1.237758,2.070136 2.095723,2.904028l-0.805343,4.457151c0.73213,0.479488 1.510019,0.892264 2.31765,1.250838l3.923761,-2.751843c1.226318,0.293947 2.509834,0.406522 3.802502,0.312709l3.322041,3.35016c0.457581,-0.11883 0.912875,-0.245998 1.363593,-0.402353c0.400384,-0.137592 0.777889,-0.300201 1.155393,-0.464895l0.084653,-4.513439c1.040998,-0.706723 1.928706,-1.557293 2.635669,-2.514184l4.944168,-0.279354c0.347762,-0.748418 0.638326,-1.526022 0.84195,-2.324473l-3.818517,-2.881096zm-9.524558,4.184052c-2.747777,0.954806 -5.822724,-0.300201 -6.872874,-2.803961s0.327171,-5.307721 3.074948,-6.264612c2.747777,-0.954806 5.8273,0.300201 6.87745,2.803961c1.047862,2.50376 -0.331747,5.307721 -3.079523,6.264612z" stroke-width="0" stroke="#f2f2e3" fill="#e8efef"/>
  <path opacity="0.12" id="svg_5" d="m519.089099,51.740855l-51.922397,0l25.961199,16.094194l25.961199,-16.094194zm-24.424309,22.950303c-0.477037,0.296615 -1.005926,0.446055 -1.534816,0.446055s-1.057778,-0.14944 -1.53689,-0.446055l-26.463125,-16.399866l0,33.449569l56.000029,0l0,-33.449569l-26.465199,16.399866z" stroke-width="0" stroke="#f2f2e3" fill="#e8efef"/>
  <path opacity="0.12" id="svg_6" d="m51.384424,223.20499l13.578477,-22.461428l0,0c-14.385307,-6.775616 -18.490136,-19.539428 -9.483288,-29.48771c9.006679,-9.948225 28.177754,-13.825027 44.289382,-8.956343c16.111624,4.868656 23.891476,16.889329 17.972925,27.770859c-5.918239,10.881526 -23.597679,17.06266 -40.843916,14.279837l-25.513579,18.854786z" fill-opacity="null" stroke-opacity="null" stroke-width="0" stroke="#f2f2e3" fill="#e8efef"/>
  <path opacity="0.12" id="svg_7" d="m79.753157,332.501441c3.911274,-3.07411 7.230686,-6.735534 8.632745,-10.892661c-4.192825,2.399254 -8.038274,6.258309 -13.88705,6.112109c-4.415463,0.190742 -9.675283,0.19397 -12.783412,-2.585564c-6.94578,-4.203928 -8.811611,-12.606217 -3.108044,-17.956299c3.90307,-3.86297 10.718687,-5.500976 16.973454,-4.921576c3.940996,-1.25861 -0.770816,-4.445528 -1.244662,-6.434497c-2.933154,-7.214753 3.976851,-15.868715 14.137466,-16.699838c7.28777,-0.78749 14.412167,2.763436 17.978182,7.371781c1.93788,3.224543 0.928174,6.884171 0.476049,10.229412c-1.522513,1.681107 -5.421856,5.748145 0.142641,5.427798c5.501689,-0.065534 11.311543,1.15016 14.93941,4.443107c5.306408,4.434937 5.793153,11.763707 0.454362,16.295396c-2.824054,2.760223 -7.061811,4.969392 -11.858181,4.846398c-4.694527,0.356708 -9.777999,-0.409846 -13.106954,-3.102145c-1.419802,-0.74883 -4.898799,-3.578069 -4.897598,-2.957609c3.477348,5.452618 7.409467,11.115101 14.365745,14.493941c2.485419,1.504159 -3.785678,0.470031 -5.303801,0.776604c-9.198077,0.006118 -18.396115,0.012357 -27.594191,0.018505c1.894601,-1.488306 3.78932,-2.976548 5.683838,-4.464857l0,-0.000004z" fill-opacity="null" stroke-opacity="null" stroke-width="0" stroke="#f2f2e3" fill="#e8efef"/>
  <path opacity="0.12" id="svg_8" d="m328.126625,283.194078c-0.394312,0 -0.596988,-0.325147 -0.596988,-0.715056c0,-0.325071 0.101323,-0.640679 0.394312,-0.640679c0.202676,0 0.507779,0.315607 0.609101,0.640679c0.202676,0.473298 0,0.715056 -0.406425,0.715056zm67.403482,18.55248c0.902121,0 1.104766,0.083388 0.596988,0.640603c-0.292989,0.38991 -0.902091,0.714981 -1.19508,0.714981c-0.305072,0 -0.609101,-0.325071 -0.609101,-0.714981c0,-0.399474 0.406456,-0.640603 1.207193,-0.640603zm-62.982238,-22.693862c-0.902091,-0.157766 -1.003444,-0.956664 0,-1.197869c0.507748,-0.074277 0.800768,0.157741 0.800768,0.640679c0,0.399424 -0.29302,0.631542 -0.800768,0.55719zm-11.244759,25.237826c1.207193,-0.232144 1.207193,-0.398996 0.800768,-0.947125c-0.304029,-0.398996 -0.405352,-0.881884 -0.202676,-1.039675c0.101323,-0.241633 0.609101,0 0.902091,0.473348c0.406425,0.640679 0.710424,0.724571 1.511192,0.325071c0.496769,-0.24118 0.902091,-0.399373 0.902091,-0.157741c0,0.157741 0.305103,0 0.699415,-0.325071c0.609132,-0.473348 0.710455,-1.513451 0.101353,-2.070691c-0.495665,-0.473348 -3.011374,-0.315557 -3.710789,0.24118c-0.405352,0.399499 -0.710455,0.316061 -1.104766,-0.39892c-0.609101,-1.188833 -0.609101,-1.355735 0.800737,-1.430012c1.207193,0 1.207193,0 0.202676,-0.482888c-0.506675,-0.232144 -1.003413,-0.714981 -1.003413,-1.030588c0,-0.798848 1.398829,-1.272196 2.00793,-0.714956c0.202676,0.232093 0.597019,0.473348 1.003444,0.473348c0.800768,0 4.623889,-2.701856 4.623889,-3.259096c0,-0.241607 0.395416,-0.399348 0.800768,-0.241607c0.496739,0.083867 1.39886,-0.157741 2.313064,-0.55724c1.296402,-0.640629 1.296402,-0.714981 0.596988,-1.754656c-0.495665,-0.714981 -1.104766,-0.956664 -2.514636,-0.956664c-1.601505,0 -2.00793,0.157816 -2.503596,1.11448c-0.20378,0.640603 -0.812851,1.113977 -1.207193,1.113977c-0.699415,0 -0.902091,-0.714553 -0.202676,-1.113977c0.303999,-0.157816 0.506675,-0.714981 0.506675,-1.272221c0,-0.872822 -0.202676,-1.030588 -1.511192,-0.79842c-1.308516,0.157741 -1.308516,0.083388 -1.003444,-1.114531c0.202676,-0.714956 0.495665,-1.355584 0.699445,-1.429937c0.202676,-0.083388 0.405321,-0.79842 0.405321,-1.513401c0,-1.430088 0.598092,-1.671267 1.703962,-0.640679c0.506644,0.557215 0.811777,0.640679 1.003413,0.157741c0.202676,-0.315557 0.9131,-0.38991 2.01897,-0.232169c1.500182,0.315607 1.601505,0.232169 1.398829,-0.714981c-0.101323,-0.557165 -0.203749,-1.197844 -0.305072,-1.355584c0,-0.241255 -0.495665,-0.55724 -1.093757,-0.798495c-1.207193,-0.399348 -1.511192,-1.355584 -0.406425,-1.355584c0.305103,0 0.598061,-0.157816 0.598061,-0.473852c0,-0.241255 0.609132,-0.398996 1.409869,-0.325122c1.10587,0.083867 1.702858,-0.232043 3.21405,-1.903235c1.10587,-1.197919 1.906608,-1.838548 2.007961,-1.513476c0.101323,0.398996 0.609101,0.631089 1.10584,0.631089c0.800768,0 0.902121,-0.232093 0.609132,-1.271768c-0.102427,-0.715031 -0.609132,-1.587753 -0.914204,-1.987252c-0.902121,-0.882236 -0.902121,-1.912825 0,-1.597343c0.710424,0.316061 2.92103,-0.556737 2.92103,-1.113952c0,-0.241633 0.294093,-0.399424 0.699415,-0.399424c0.406456,0 0.598092,0.482863 0.598092,1.114455c0,0.79842 0.202676,1.114027 0.710455,0.881859c0.394312,-0.166878 0.699445,-0.640679 0.699445,-0.956211c0,-0.956714 3.214019,-2.627931 4.014757,-2.154155c0.305133,0.157867 0.609101,0 0.711589,-0.557165c0.292959,-1.114455 2.108149,-1.987252 2.908886,-1.430012c0.406456,0.232093 0.800799,0.157816 0.903225,-0.083388c0.202645,-0.316035 1.003413,-0.55724 1.905504,-0.631643c0.902091,-0.083388 2.109284,-0.399424 2.617062,-0.724495c1.905504,-1.030588 3.812142,-0.956236 4.612879,0.158295c0.507779,0.798369 0.710424,0.798369 0.710424,0.241129c0,-0.715031 0.395447,-0.79842 2.808729,-0.557165c3.823151,0.316035 4.421243,0.316035 5.831112,-0.083464c0.902091,-0.232144 1.207162,-0.157791 1.207162,0.482812c0,0.399499 0.29302,0.715056 0.699445,0.715056c0.303999,0 0.596988,-0.232169 0.596988,-0.473801c0,-0.640603 1.613649,-0.956211 3.023487,-0.640603c1.093757,0.316035 1.19508,0.399348 0.902091,2.544392c-0.101323,1.281308 0,2.154105 0.191667,2.154105c0.202645,0 0.406425,-0.55724 0.406425,-1.35566c0,-1.346573 1.104766,-1.903361 1.511192,-0.798445c0.101353,0.399021 0.394312,0.241205 0.596988,-0.389884c0.507809,-1.671695 1.613649,-0.798923 1.308516,1.030588c-0.303968,1.513401 -0.303968,1.513401 0.598123,0.956161c0.507748,-0.241205 0.90206,-0.872722 0.90206,-1.271768c0,-0.399449 0.305133,-0.873225 0.710485,-1.040128c0.800707,-0.315482 1.703932,0.881934 1.409838,1.755084c-0.101323,0.399071 -0.101323,0.715031 0.191636,0.715031c0.20378,0 0.406456,-0.232093 0.406456,-0.399424c0,-0.232144 0.496739,-0.315607 1.10584,-0.157741c1.307442,0.241205 1.499078,0.881808 0.394343,1.271718c-0.292989,0.167331 -0.598092,0.55724 -0.598092,0.882362c0,0.55724 0.203749,0.55724 1.308516,0c1.804181,-0.956211 2.604918,-0.882362 2.910051,0.157741c0.202645,0.55724 0.598061,0.798873 1.003413,0.55724c0.406425,-0.083439 1.308516,0.241633 2.007961,0.79842c0.609101,0.473776 1.511192,0.872797 1.917617,0.872797c0.598092,0 0.598092,0.399474 0.394312,1.513879c-0.202645,1.197919 -0.202645,1.35566 0.406456,0.872848c0.800737,-0.789409 1.104766,-0.715107 1.39886,0.39892c0.101323,0.55724 0.811747,0.956664 1.612514,1.197869c0.902091,0.158295 1.39886,0.557215 1.39886,1.031016c0,0.482863 0.303968,1.039675 0.609101,1.35571c0.800768,0.557165 0.596988,2.228382 -0.305133,2.785597c-0.303968,0.166903 -0.699384,0.083464 -0.800737,-0.157741c-0.202645,-0.241683 -0.902091,-0.241683 -2.210637,0c-2.109284,0.556737 -2.503596,0.714981 -2.00793,1.439048c0.305103,0.473348 3.813215,0.315607 5.729759,-0.241633c0.598092,-0.24123 0.800768,0 0.800768,1.11448c0,0.798369 -0.202676,1.430012 -0.506675,1.430012c-0.20378,0 -0.395416,0.24118 -0.395416,0.640603c0,0.956614 0.496769,0.872722 1.805285,-0.241255c0.698311,-0.640603 1.104736,-0.798848 1.601505,-0.399348c0.506675,0.399348 0.609101,0.399348 0.609101,-0.241255c0,-0.390388 -0.20378,-0.714981 -0.507748,-0.714981c-0.191667,0 -0.395447,-0.316035 -0.395447,-0.631643c0,-0.399373 0.294093,-0.714981 0.699415,-0.714981c0.305103,0 0.710455,0.157741 0.710455,0.38991c0,0.241733 0.395416,0.557215 0.903195,0.640679c0.698341,0.241683 0.902091,0.55724 0.800737,1.513451c-0.203749,1.829386 0.202707,2.386676 1.702858,2.071119c0.710455,-0.158295 1.104736,0 0.800768,0.315557c-0.090313,0.157741 0,0.55724 0.202676,0.724017c0.812851,0.473827 0.507748,1.587879 -0.394343,1.587879c-1.10584,0 -1.409869,0.399348 -0.811747,1.114405c0.405321,0.399424 0.710424,0.473348 1.104736,0.157791c0.914204,-0.79842 1.10587,-0.157791 1.207193,3.027355c0,1.596789 0.202676,2.869061 0.405352,2.869061c0.496739,0 0.305103,1.755084 -0.405352,2.470065c-0.395416,0.398996 -0.395416,0.78888 -0.101323,1.113952c0.710424,0.715056 0,2.785748 -0.903225,2.785748c-0.800707,0 -2.311929,1.513401 -2.311929,2.228432c0,0.873276 -1.296402,0 -1.601505,-0.956236c-0.303999,-0.872772 -0.303999,-0.872772 -0.507779,-0.241633c-0.191636,0.72452 0.903195,2.952952 1.816325,3.584469c0.598061,0.482938 -0.507779,1.281308 -1.308546,0.956236c-0.406456,-0.157741 -0.598092,-0.631089 -0.598092,-1.113977c0,-1.355584 -2.514636,-4.772899 -4.421243,-6.054157c-1.014422,-0.631643 -1.916544,-1.346624 -1.916544,-1.587803c0,-0.482888 -3.215123,-1.987252 -5.019304,-2.470115c-1.004548,-0.241633 -1.308546,-0.157766 -1.308546,0.482863c0,0.473348 -0.191636,0.631089 -0.598092,0.473348c-0.902091,-0.315607 -1.308516,0.399499 -0.507748,1.11448c1.10584,0.872772 0.914204,1.912825 -0.292989,1.513401c-0.811777,-0.241205 -0.913131,-0.157816 -0.609101,1.197894c0.101323,0.789333 0.305103,1.829386 0.305103,2.302734c0,0.482888 0.202645,0.798495 0.405321,0.798495c0.294124,0 0.395416,-0.157816 0.191667,-0.398996c-0.101323,-0.241683 0.102457,-0.473801 0.507748,-0.473801c0.305133,0 0.598092,0.315985 0.598092,0.631542c0,0.325122 -0.395385,0.640603 -1.10584,0.55729c-0.596988,0 -1.104766,-0.232169 -1.104766,-0.38996c0,-0.724571 -2.707376,-5.655211 -3.508113,-6.379278c-0.902121,-0.789409 -0.304029,-1.030588 -7.432648,2.711295c-1.104736,0.55724 -2.311929,1.755084 -2.92103,2.627931c-0.496769,0.872722 -1.297506,1.755084 -1.702858,1.912825c-0.406425,0.157816 -1.906608,1.430012 -3.215154,2.785672c-5.628436,5.970265 -4.714233,6.685296 -4.31989,18.877602c1.703932,9.238825 1.703932,9.238825 1.703932,9.238825c-4.015891,0 -4.015891,0 -4.015891,0c-3.315373,0 -3.315373,0 -3.315373,0c0.303999,-8.524322 0.303999,-8.524322 0.303999,-8.524322c0.202645,-0.714503 0.305103,-2.154029 0.406456,-2.952525c0.101323,-0.473776 -2.819738,-2.544467 -2.718385,-3.017765c0,-0.399424 3.022383,0.715056 3.022383,0.315557c0.496739,-5.812524 0,-10.436744 -1.308546,-12.897747c-0.303999,-1.513476 -2.819708,-6.3788 -3.214019,-6.3788c-0.101353,0 -0.811777,-0.473776 -1.511192,-1.031016c-1.207224,-1.039625 -1.702858,-1.114027 -8.437165,-1.430012c-7.229941,-0.324644 -7.229941,-0.324644 -7.229941,-0.324644c-1.713868,1.114027 -1.713868,1.114027 -1.713868,1.114027c-1.003413,0.724495 -2.00793,1.197869 -2.30095,1.197869c-0.609101,0 -3.12481,1.67162 -4.218567,2.62778c-0.101323,0 -0.202645,-0.083313 -0.202645,-0.157741c-0.101353,0 -0.101353,0 -0.101353,-0.083439c-0.101323,-0.232093 -0.203749,-0.473776 -0.406425,-0.714981c0.609101,-0.399424 1.10584,-0.641056 1.308516,-0.557165c0.303999,0.157741 0.598092,0 0.598092,-0.399499c0,-0.398996 -0.598092,-0.557215 -2.199597,-0.398996c-1.917648,0.241255 -2.414386,0.324644 -2.718385,1.271793c-0.496769,0.482863 -0.598092,1.197894 -0.303999,1.755134c-0.102457,0.714981 -0.102457,1.197844 0,1.197844c0.101323,0 0.202645,-0.157741 0.506675,-0.325071c0,0.083464 0.101323,0.167331 0.203749,0.241633c-1.004517,0.241205 -1.512296,0.956236 -1.409869,1.671217c-0.507748,0.325071 -1.004517,0.482863 -1.613588,0.724067c0,0 0,-0.083388 -0.090344,-0.083388c0.395416,-0.714981 0.598092,-1.513476 0.699415,-2.71132c0.20378,-1.346624 0.101323,-2.228432 -0.202645,-2.228432c-0.202676,0 -0.406425,0.325071 -0.406425,0.798344c0.101292,0.399499 -0.090344,0.798495 -0.495696,0.872848c-0.305103,0.083388 -0.507748,-0.074352 -0.507748,-0.473348c0,-0.956664 -0.394343,-0.956664 -1.297537,-0.083867c-0.405321,0.325071 -1.206089,0.715031 -1.905504,0.882362c-0.914204,0.232093 -1.207193,0.074277 -1.613618,-0.798495c-0.303999,-0.714981 -0.506675,-1.513879 -0.303999,-1.829436c0.101323,-0.399424 0.101323,-0.724067 -0.292989,-0.724067c-1.10587,0 -0.305103,-1.272271 1.003413,-1.513904zm8.639811,-18.310847c-0.609101,-0.083388 -1.10587,-0.315557 -1.308516,-0.640629c-0.101353,-0.473776 -0.202676,-0.473776 -0.202676,0c0,0.325071 -0.406425,0.55724 -0.800768,0.640629c-0.710424,0 -0.710424,0.083439 0.101353,0.399499c0.495635,0.157741 1.003413,0.39892 1.104736,0.39892c0.090313,0 0.598092,-0.24118 1.10587,-0.39892c0.902091,-0.399499 0.902091,-0.399499 0,-0.399499zm79.651654,12.823395c0.191667,0.157816 0.394343,-0.083867 0.394343,-0.482863c0,-0.315985 -0.202676,-0.631593 -0.394343,-0.631593c-0.305072,0 -0.507748,0.157791 -0.507748,0.38991c0,0.241683 0.202676,0.566754 0.507748,0.724546zm-0.710424,0.715031c-0.101323,-0.241683 -0.598092,-0.557215 -1.004517,-0.557215c-0.292989,0 -0.495665,0.315532 -0.292989,0.557215c0.090313,0.241205 0.496739,0.399021 0.902091,0.399021c0.395416,0 0.496739,-0.157816 0.395416,-0.399021zm-0.902091,3.584042c0.303999,0 0.710424,-0.083388 0.710424,-0.157741c0,-0.167331 -0.406425,-0.325071 -0.710424,-0.482888c-0.395416,-0.157791 -0.699445,-0.074352 -0.699445,0.157816c0,0.241633 0.304029,0.482812 0.699445,0.482812zm0.800768,-7.567557c0.405321,-0.157867 0.609071,-0.399474 0.506675,-0.631643c-0.304029,-0.566251 -2.006888,-0.566251 -2.006888,0c0,0.631643 0.597019,0.872848 1.500213,0.631643zm-5.516074,-5.970819c-0.507779,0.241683 -0.811777,0.715031 -0.710485,0.956664c0.507779,0.631165 1.105901,0.473348 1.612545,-0.55724c0.496769,-0.956664 0.294093,-1.114405 -0.90206,-0.399424zm-1.917648,12.26618c2.617032,2.144968 2.718385,2.228432 2.718385,1.513451c0,-0.398996 -0.202676,-0.724067 -0.507779,-0.724067c-0.292959,0 -0.800737,-0.399499 -1.104736,-0.872772c-0.29302,-0.473852 -0.902091,-0.956739 -1.39886,-0.956739c-0.9131,0 -0.9131,0.083892 0.292989,1.040128zm-2.10821,-3.751423c0.608028,0 0.902121,-0.157741 0.506705,-0.232118c-0.303999,-0.157791 -0.800768,-0.157791 -1.104766,0c-0.305133,0.074378 0,0.232118 0.598061,0.232118zm-2.910021,-10.826653c0.303999,0.241255 1.206089,0.556812 2.006826,0.715056c1.4099,0.24118 1.511222,0.24118 0.710455,-0.399424c-0.9131,-0.789409 -3.416695,-1.030588 -2.717281,-0.315633zm-6.125206,-13.213229c-0.303999,0.232093 -0.405321,0.714981 -0.303999,1.030513c0.202676,0.640679 0.800768,0.083464 0.800768,-0.872772c0,-0.482888 -0.101353,-0.55724 -0.496769,-0.157741zm3.011374,17.19682c0.800768,0.398946 1.10587,0.398946 1.512326,-0.158244c0.800737,-0.872822 0.292959,-1.271768 -1.207224,-0.714956c-1.207193,0.390337 -1.207193,0.390337 -0.305103,0.8732zm-2.006826,-3.983591c1.511192,-0.872697 1.511192,-0.872697 0.303999,-0.872697c-0.811777,0 -1.409869,0.315482 -1.713868,0.872697c-0.191667,0.556812 -0.395416,0.872848 -0.294093,0.872848c0,0 0.800768,-0.473827 1.703962,-0.872848zm-2.210637,12.906859c0.698311,0.872848 1.905534,0.872848 1.511192,-0.083439c-0.101323,-0.315985 -0.203749,-0.714981 -0.203749,-0.798873c0,-0.074352 -0.405352,-0.074352 -0.902091,0.083892c-0.811777,0.157791 -0.811777,0.398996 -0.405352,0.79842zm-3.113801,-3.268535c0.800737,0.872822 1.207193,0.956211 2.109284,0.315607c0.598092,-0.398996 0.598092,-0.398996 0,-0.473348c-0.303999,0 -1.104766,-0.083892 -1.804181,-0.241683c-1.004517,-0.315557 -1.004517,-0.315557 -0.305103,0.399424zm-0.101323,-8.682088c0.507748,0 1.10584,-1.272196 0.800768,-1.671192c-0.394343,-0.399424 -1.20612,0.24118 -1.20612,0.956211c0,0.399449 0.202676,0.714981 0.405352,0.714981zm-4.916908,5.413528c-0.609101,0.325071 -0.507748,0.399499 0.29302,0.399499c0.507748,0 1.104736,-0.158295 1.308516,-0.399499c0.303968,-0.631517 -0.699445,-0.631517 -1.601536,0zm0.101353,7.010443c0.090313,0.083892 0.394312,-0.083439 0.699415,-0.473348c0.303968,-0.325071 1.20612,-0.724495 1.905504,-0.882312c0.902091,-0.241255 1.308546,-0.631139 1.308546,-1.197894c0,-1.34607 -1.409869,-0.94715 -2.910082,0.798898c-0.609071,0.881884 -1.104736,1.596915 -1.003382,1.754656zm-1.10584,-3.667531c0.90206,-0.872722 0.90206,-1.031016 0.191605,-1.272221c-0.800737,-0.315607 -1.397725,0.399499 -1.397725,1.671217c-0.102427,0.956664 -0.102427,0.956664 1.20612,-0.398996zm-1.612545,-9.397044c0.101323,0.640603 0.303999,0.557215 0.90206,-0.631593c0.710485,-1.271793 0.710485,-1.439124 0.101353,-1.439124c-0.394312,0 -0.800768,0.241255 -0.902091,0.640704c-0.202676,0.315532 -0.202676,1.040103 -0.101323,1.430012zm-0.496769,-6.52758c0,0.324644 0.191636,1.114027 0.395416,1.671217c0.303999,1.114455 0.303999,1.114455 0.609101,0.157791c0.394312,-0.956161 0,-2.386173 -0.609101,-2.386173c-0.294093,0 -0.395416,0.241129 -0.395416,0.557165zm-7.037201,2.627428c-0.496739,0.55724 -0.496739,1.11448 -0.102427,2.785672c0.20378,1.197869 0.711559,2.395763 1.004517,2.627931c0.507779,0.399424 0.609101,0 0.710424,-2.469687c0,-3.017841 -0.507748,-3.974429 -1.612514,-2.943916zm0.902091,8.440883c0.101353,0.157816 0.303999,-0.157791 0.202676,-0.631567c0,-0.482888 -0.101323,-0.55724 -0.303999,-0.241205c-0.090344,0.315557 -0.090344,0.714981 0.101323,0.872772zm3.620475,-7.484219c-0.101323,0.157816 -0.101323,1.272271 0.202676,2.469687c0.305103,2.071119 0.395416,2.154508 0.496769,0.641056c0.101323,-2.470115 -0.101353,-3.667959 -0.699445,-3.110744zm-3.417799,22.461719c0.609101,-0.956664 1.612545,-2.553579 2.31196,-3.510167c0.800737,-1.030664 1.308516,-2.386248 1.511192,-3.741908c0.294093,-2.145044 0.294093,-2.145044 0.294093,-2.145044c-1.207193,1.188808 -1.207193,1.188808 -1.207193,1.188808c-0.598092,0.640679 -1.003444,1.35566 -1.003444,1.596915c0,0.631542 -1.906608,4.615058 -2.5047,5.330089c-0.303999,0.39892 -0.811777,1.281308 -0.902091,1.912825c-0.507779,1.829059 0.395416,1.513451 1.500182,-0.631517zm-7.128619,8.1992c0.305103,1.587753 0.305103,1.587753 1.308546,-1.829461c0.598092,-1.838573 1.500182,-4.781935 2.109284,-6.611422c0.800737,-2.311896 1.10584,-4.224721 1.10584,-6.926929c0,-3.509815 -0.102427,-3.584167 -0.903164,-3.184668c-1.815221,1.030563 -2.819738,3.899624 -3.22509,9.470893c-0.191636,2.869614 -0.395416,5.738675 -0.598061,6.370267c-0.101353,0.640629 0,1.838522 0.202645,2.71132zm0.20378,-20.381992c0.394312,0.789384 0.800768,1.430012 0.800768,1.430012c0.101323,0 0.596957,-0.482888 1.003413,-1.114405c0.507748,-0.556787 1.308516,-1.197416 1.612545,-1.429584c1.196153,-0.724495 1.500152,-2.952927 0.496739,-4.466378c-0.800768,-1.35566 -3.011374,-2.869564 -3.41783,-2.386676c-0.202645,0.157791 -0.495635,1.671695 -0.699415,3.426351c-0.405321,2.627856 -0.405321,3.426703 0.20378,4.54068zm-0.609101,-18.236873c0.202676,0.158244 0.405321,0.074352 0.405321,-0.166827c0,-0.316035 -0.202645,-0.631643 -0.405321,-0.789409c-0.305103,-0.167305 -0.496769,-0.083439 -0.496769,0.232169c0,0.241205 0.191667,0.55724 0.496769,0.724067zm-32.540272,21.412454c1.398829,0.083867 1.398829,0.083867 1.398829,0.083867c1.409869,0 2.819738,-1.031016 2.819738,-1.912825c0,-0.55724 -0.101323,-0.55724 -4.218567,1.828958zm0.598092,-2.228457c0,0.241759 0.202676,0.482888 0.507779,0.482888c0.495665,0 1.905504,-1.430012 1.601505,-1.671192c-0.305103,-0.325071 -2.109284,0.714956 -2.109284,1.188304zm1.10584,-5.487805c1.511222,1.588181 2.210637,1.745972 3.011374,0.714956c0.811777,-0.956161 0.101353,-1.596839 -2.313033,-1.829008c-2.006857,-0.241683 -2.006857,-0.241683 -0.698341,1.114052zm-1.10584,-4.465976c0,0.166827 0.710424,0.556737 1.511192,0.881808c3.710819,1.513476 4.421243,1.513476 4.31989,0.074428c0,-0.872848 -1.511192,-2.785723 -2.109284,-2.785723c-0.710424,0 -3.721798,1.513451 -3.721798,1.829486zm5.42576,11.309516c1.104766,0 1.206089,-0.241255 0.303999,-0.631165c-0.406425,-0.083867 -0.800768,0 -0.902091,0.232169c-0.20378,0.241129 0.101323,0.398996 0.598092,0.398996zm0.800768,-18.710296c-0.699445,-0.399474 -1.60264,-0.557215 -2.007961,-0.399474c-0.699415,0.316035 -0.598092,0.399474 0.405321,0.640603c0.496769,0.158295 1.512326,0.316061 2.007961,0.390413c0.598092,0 0.598092,-0.158244 -0.405321,-0.631542zm-0.090313,2.869061c0.596957,0 0.699415,-0.083439 0.292989,-0.324644c-0.292989,-0.074302 -0.699445,-0.074302 -0.902121,0.083464c-0.101323,0.157741 0.202676,0.315607 0.609132,0.24118zm0.596957,1.829512c-1.409838,0 -1.409838,0.074277 -0.596957,0.714956c1.003413,0.714981 1.296402,0.798369 1.702858,0.315557c0.699384,-0.631165 0.202645,-1.030513 -1.105901,-1.030513zm2.007992,-8.997695c-0.406456,-0.399424 -0.507779,0.315607 -0.304029,1.18838c0.101323,0.55724 0.506675,1.040052 0.710455,1.040052c0.394312,0 0.101323,-1.755084 -0.406425,-2.228432zm3.214019,10.511021c-0.202645,0.074428 0.305103,0.55724 0.903195,0.956714c0.609101,0.398996 1.104736,0.556762 1.104736,0.315557c0,-0.557165 -1.702828,-1.597267 -2.00793,-1.272271zm-2.514636,0.55724c-0.902091,0.55729 -0.394312,1.987227 0.913131,2.228482c0.699415,0.157766 1.805285,0.798445 2.5047,1.429962c0.609101,0.640679 1.104736,0.882362 1.104736,0.640679c0,-0.79842 -4.014787,-4.624195 -4.522566,-4.299123zm4.117245,6.611497c-0.598061,-1.281786 -1.297506,-1.91295 -2.606053,-2.312374c-1.003413,-0.315557 -2.00793,-0.482812 -2.311929,-0.398946c-0.305103,0.083388 0.902091,1.113977 2.617062,2.311846c3.214019,2.070691 3.214019,2.070691 2.30092,0.399474zm5.334343,-12.26623c-0.202676,0 -0.406456,0.315607 -0.406456,0.631165c0,0.399424 0.20378,0.640679 0.406456,0.640679c0.292989,0 0.496769,-0.241255 0.496769,-0.640679c0,-0.315557 -0.20378,-0.631165 -0.496769,-0.631165zm-0.9131,6.52758c0,0.557165 1.713868,0.157791 2.413282,-0.55724c1.003444,-1.197844 0.902091,-1.513451 -0.406425,-1.513451c-0.902091,0 -2.006857,1.114505 -2.006857,2.070691zm2.921061,-17.196896c-0.305103,1.030588 -0.507779,1.903361 -0.406425,1.987252c0.305072,0.315607 1.10587,-2.070641 1.10587,-3.027305c0,-0.398996 -0.305133,0.083892 -0.699445,1.040052zm5.222011,16.082415c-0.507779,0 -0.902121,0.158295 -0.902121,0.473776c0,0.241255 0.292989,0.399499 0.596988,0.399499c0.406425,0 0.800768,-0.158244 0.903195,-0.399499c0.202676,-0.315482 -0.102427,-0.473776 -0.598061,-0.473776zm-1.207224,14.968388c0.598092,1.439552 1.500182,2.785672 2.007961,3.110744c0.507779,0.241255 1.511192,1.35571 2.109284,2.470115c0.598092,1.114027 1.207193,1.986825 1.308546,1.986825c0.495635,0 -0.507779,-7.326 -1.207193,-9.55486c-0.609132,-1.912397 -0.800799,-3.667531 -0.699445,-6.453203c0.090313,-2.070641 0,-3.900127 -0.202645,-4.057893c-0.101353,-0.157791 -0.800768,-0.157791 -1.409869,0c-1.10587,0.315557 -1.207193,0.55724 -1.207193,2.312324c0,1.346146 -0.202707,2.070691 -0.699445,2.386173c-1.409838,0.715056 -1.308516,4.772925 0,7.799776zm-2.910021,-10.668812c-0.202676,-1.197869 -0.405321,-1.35566 -1.511192,-1.35566c-1.308546,0 -1.308546,0.083439 -1.207193,1.754656c0,1.031016 0.203749,2.22886 0.305072,2.785647c0.101353,0.55724 0.496769,1.114405 0.902121,1.197869c0.800737,0.399474 1.702828,-2.386173 1.511192,-4.382512zm-1.511192,8.040956c-0.902121,-0.956236 -1.511192,-1.986825 -1.601536,-2.228432c0,-0.315557 -0.507748,-1.113977 -1.104766,-1.829008c-0.609101,-0.714981 -1.308516,-1.597293 -1.613618,-1.9129c-1.003413,-1.114405 -0.800768,-0.157741 0.305103,2.311896c0.699415,1.67162 1.905534,3.185096 3.315373,4.457292c2.606022,2.15408 2.910051,1.754731 0.699445,-0.798848zm-1.601536,3.909163c1.093757,0 1.003444,-0.083388 -0.507748,-1.355584c-1.003444,-0.798495 -1.702858,-1.671267 -1.702858,-2.070716c0,-0.315532 -1.308546,-1.439099 -2.819708,-2.469687c-1.500213,-1.040027 -2.910082,-2.070616 -3.112727,-2.386601c-0.20378,-0.398996 -0.305103,-0.398996 -0.305103,0.074352c0,0.482888 -0.495665,0.557165 -2.109284,0.315557c-1.104766,-0.157816 -2.006857,-0.157816 -2.006857,-0.073924c0,0.157791 0.405321,1.114027 0.811777,2.070616c0.699445,1.587829 1.003413,1.91295 3.21405,2.544065c1.39886,0.399424 3.609435,1.355635 5.019304,2.070616c1.308546,0.724571 2.910051,1.281308 3.519153,1.281308zm-15.678085,2.702208c0.406425,0 1.004517,-0.157741 1.409838,-0.399348c0.699445,-0.556812 0.102457,-0.556812 -1.206089,0c-0.598092,0.241607 -0.699415,0.31596 -0.203749,0.399348zm-1.104766,-1.987227c1.003444,-0.324593 4.218567,-0.640629 7.139628,-0.640629c5.515,-0.074352 6.62084,-0.315482 4.410203,-0.79842c-0.699384,-0.157741 -2.30092,-0.55724 -3.609435,-0.956236c-2.31196,-0.714981 -7.038305,-0.473776 -7.533971,0.324719c-0.102427,0.158169 -0.609101,0.241607 -1.10584,0.158169c-1.003444,-0.241633 -2.007961,0.399046 -2.31196,1.671267c-0.406425,1.030513 0.303999,1.114405 3.011374,0.241129zm-8.030709,1.829486c0.202676,0.640679 1.207193,0.714981 2.007961,0.157741c0.495635,-0.315532 0.495635,-0.473273 0,-0.956161c-0.406425,-0.473852 -0.699415,-0.473852 -1.308516,-0.074352c-0.406425,0.232169 -0.699445,0.631165 -0.699445,0.872772zm-3.21405,5.571344c0.394343,0 0.597019,0.241255 0.394343,0.715031c-0.090344,0.325071 -0.394343,0.640629 -0.598092,0.640629c-0.303999,0 -0.495665,-0.315557 -0.495665,-0.640629c0,-0.38991 0.292989,-0.715031 0.699415,-0.715031z" fill-opacity="null" stroke-opacity="null" stroke-width="0" stroke="#f2f2e3" fill="#e8efef"/>
  <path opacity="0.12" id="svg_9" d="m211.793835,339.71141c-11.427957,-3.699091 -19.619138,-15.45288 -17.757611,-25.48099c1.173823,-6.323485 25.938521,-44.711447 28.101263,-43.560024c0.70589,0.375807 6.987432,9.325652 13.958981,19.888548c11.167689,16.920644 12.675537,20.075821 12.675537,26.523605c0,13.069392 -12.142266,23.774706 -26.721572,23.55927c-4.254447,-0.062876 -8.869919,-0.481558 -10.256599,-0.930406l0,-0.000002zm11.449522,-6.573423c0.37827,-1.692022 -0.50535,-2.517214 -2.695475,-2.517214c-4.99152,0 -11.915569,-5.445844 -13.462507,-10.588408c-1.650163,-5.48572 -6.025479,-6.138135 -6.671737,-0.994838c-1.245105,9.909294 20.732088,23.483191 22.829717,14.10046l0.000003,0z" fill-opacity="null" stroke-opacity="null" stroke-width="0" stroke="#f2f2e3" fill="#e8efef"/>
  <path opacity="0.12" id="svg_10" d="m356.259408,159.640693c1.279022,-1.92726 3.619122,-4.437829 -0.401439,-5.043497c-1.119972,-0.478394 -2.240308,-1.324908 -3.358836,-0.381906c-2.488685,0.818031 -4.646075,1.962014 -2.02845,4.102998c1.160783,1.382651 2.216556,4.399456 3.531435,4.731708c0.784764,-1.121295 1.519917,-2.266143 2.25729,-3.409305l0,0.000002zm-5.497898,5.32141c-2.284643,-3.3929 -4.123152,-7.032856 -6.919449,-10.162862c-3.400996,-3.021436 -10.102188,-1.674579 -11.625052,2.222656c-2.022942,3.853086 2.3419,8.453546 7.283125,7.971277c3.749623,0.052255 7.52058,0.192749 11.261376,-0.03107zm18.984792,0.114539c4.859179,-0.541979 7.653541,-5.632025 4.886909,-9.011692c-2.451698,-3.606703 -9.50512,-3.732437 -11.96751,-0.067231c-2.132175,2.963145 -3.982788,6.059507 -5.939368,9.103887c4.325611,0.205791 8.691904,0.157789 13.019969,-0.024966l0,0.000002zm8.047286,4.339746c1.656521,-1.212823 8.071273,-2.642638 3.213058,-3.794465c-1.203488,-0.284165 -2.606591,-1.587785 -3.688215,-1.231041c-2.348715,2.429826 -5.960081,3.855278 -9.730674,3.705973c-0.738132,0.201887 -4.502979,-0.30705 -3.485754,0.271015c2.660018,1.262047 5.253047,2.632634 8.004445,3.752823c1.927137,-0.854009 3.797474,-1.794757 5.68714,-2.704308l0,0.000002zm-37.845939,0.686652c1.416602,-0.686652 2.833201,-1.373305 4.249798,-2.059957c-4.330083,-0.179026 -9.285479,0.340297 -12.557909,-2.55759c-0.922632,-0.85961 -1.807366,-1.843773 -3.08609,-0.761556c-1.531646,0.878013 -6.242802,1.777771 -2.615465,2.849585c3.158595,1.552539 6.294973,3.142957 9.531636,4.580634c1.542306,-0.601811 2.996146,-1.353955 4.478034,-2.051114l-0.000002,-0.000002zm20.760617,7.661599c1.835755,-1.227305 6.282236,-2.396585 6.430785,-3.713594c-4.150457,-1.987313 -8.180022,-4.199972 -12.522221,-5.879725c-1.494315,-0.471729 -2.705854,0.254119 -3.90867,0.884564c-3.556768,1.76037 -7.199112,3.411487 -10.640143,5.325485c4.50024,2.315499 9.054573,4.562531 13.65321,6.740081c2.345554,-1.094669 4.660783,-2.234081 6.987039,-3.356809l0,-0.000002zm18.417026,3.830797c1.904489,-0.999862 3.80898,-1.999721 5.713479,-2.999589c-0.015592,-3.34886 0.048688,-6.699118 -0.06142,-10.046809c-3.843802,1.784626 -7.632938,3.658359 -11.358122,5.609434c-0.407424,3.454008 -0.200798,6.965137 -0.112248,10.436552c1.965664,-0.963611 3.883572,-1.994248 5.81831,-2.999589zm-44.665709,-2.109835c0.193427,-2.854625 0.610383,-6.108741 -3.52695,-6.954362c-2.612746,-1.013949 -6.23424,-3.611884 -8.247093,-3.585826c-0.062714,3.216519 -0.029523,6.43363 -0.03631,9.650431c3.859461,2.004063 7.650435,4.104609 11.593192,5.993763c0.382304,-1.658075 0.132386,-3.415728 0.217161,-5.104007zm27.637544,11.052756c2.282803,-1.199176 4.565603,-2.398353 6.848405,-3.597529c-0.01057,-3.457305 0.16124,-6.919582 -0.026531,-10.373175c-2.508814,0.598628 -5.378282,2.449006 -8.021454,3.598342c-1.979163,0.964642 -3.958337,1.92929 -5.937502,2.893936c0.039029,3.691557 -0.106694,7.389857 0.144335,11.075947c2.366017,-1.150302 4.669146,-2.389182 6.992745,-3.597521l0.000002,0zm-9.569336,-1.940456c0,-1.845992 0,-3.691985 0,-5.537971c-4.582678,-2.22838 -9.150688,-4.477882 -13.751232,-6.680641c-0.25441,3.530055 -0.109024,7.073385 -0.147389,10.609538c4.581656,2.386832 9.115836,4.838846 13.755449,7.147051c0.18054,-1.839451 0.114617,-3.693579 0.143171,-5.537977zm26.711409,7.420832c1.867625,-1.034805 3.73525,-2.069612 5.602882,-3.104417c-0.077926,-3.280818 0.192386,-6.606034 -0.200761,-9.85065c-3.883954,1.843831 -7.632358,3.94299 -11.447089,5.911339c0.091642,3.394562 -0.188168,6.827988 0.233252,10.193544c1.970371,-1.006307 3.880718,-2.092463 5.811716,-3.149817zm-44.820853,-1.839281c-0.015202,-1.720176 -0.030422,-3.440355 -0.045626,-5.160529c-3.858449,-2.008607 -7.668288,-4.084407 -11.584704,-6.01404c-0.245096,3.295597 -0.105396,6.604039 -0.142257,9.905521c3.892439,2.143899 7.74109,4.344612 11.68572,6.421591c0.151137,-1.712395 0.07613,-3.43637 0.086868,-5.152543zm27.777434,11.304272c2.267136,-1.252842 4.534272,-2.505682 6.801408,-3.758521c-0.005266,-3.493393 0.080033,-6.988291 -0.032779,-10.48049c-4.614987,2.367715 -9.199101,4.77901 -13.749409,7.231822c-0.514251,3.373213 -0.180817,6.851102 -0.181568,10.261185c1.412279,0.715769 5.023221,-2.456434 7.162348,-3.253999l0,0.000002zm-9.667993,-1.495457c-0.274149,-2.408812 1.179072,-5.799349 -2.500294,-6.733172c-3.710504,-1.955501 -7.406093,-3.932344 -11.165421,-5.822387c-0.547936,3.307054 0.025133,6.752238 -0.395781,10.099749c4.508148,2.711671 9.134102,5.303974 13.844329,7.765875c0.377777,-1.72524 0.142814,-3.552723 0.217166,-5.310066l0,0.000002zm-15.766323,-0.636782c-5.487036,-3.047776 -10.97407,-6.095549 -16.461101,-9.143318c0.00622,-9.405855 -0.149961,-18.81397 0.050668,-28.218059c2.747644,-1.410659 5.671578,-2.567057 8.499301,-3.861304c-1.826421,-4.350402 0.808744,-9.637063 6.104703,-11.265464c4.439507,-1.51569 9.790972,-0.147891 12.621369,3.042899c2.055835,-0.877309 4.111676,-1.754617 6.167513,-2.631926c2.066875,0.885245 4.133762,1.770491 6.200634,2.655734c2.961645,-2.923153 8.035728,-4.591326 12.432869,-2.953108c5.27807,1.543654 8.154989,6.818499 6.262179,11.162072c2.84853,1.338169 5.945548,2.383861 8.557327,4.016768c0.115783,9.350146 0.001036,18.701671 -0.009464,28.05239c-10.917868,6.011979 -21.658813,12.253449 -32.753935,18.036844c-3.226275,-0.000723 -6.011016,-2.915511 -9.004772,-4.097291c-2.894326,-1.592198 -5.781346,-3.193576 -8.667305,-4.796236l0.000012,-0.000002z" fill-opacity="null" stroke-opacity="null" stroke-width="0" stroke="#f2f2e3" fill="#e8efef"/>
  <path opacity="0.12" id="svg_11" d="m181.534403,205.299775c-4.792355,-0.558785 -8.097637,-4.871798 -6.535731,-8.666861c0.965449,-3.679143 5.906793,-4.685593 9.183235,-6.627279c10.409853,-5.066671 20.879004,-10.050687 31.321138,-15.072327c0.548516,-2.44954 -1.664996,-3.975496 -4.029577,-5.12697c-4.73134,-3.082611 -4.473506,-9.226324 -0.466793,-12.658081c4.695838,-4.524851 14.576594,-3.102435 17.506738,2.249626c2.842409,2.378634 -0.05403,8.204821 -4.040907,5.400402c-0.415867,-3.185938 -3.73472,-6.921722 -8.114255,-4.89826c-4.569386,2.153261 -1.86942,7.172362 2.351017,8.183321c2.848809,1.565064 2.469057,4.467688 2.620211,6.914686c12.513966,6.128839 25.185804,12.047833 37.52827,18.406891c4.913767,3.129973 2.89294,10.663604 -3.295121,11.684539c-4.691341,0.553991 -9.504504,0.163784 -14.24287,0.31528c-19.92748,0.012619 -39.860182,0.123903 -59.785358,-0.104966l0.000003,0zm72.505006,-5.177691c3.587777,-2.93284 -3.122164,-4.51022 -5.332409,-5.946851c-10.178918,-4.902935 -20.32527,-9.857615 -30.624193,-14.588543c-12.067716,5.622025 -24.108088,11.300178 -35.951229,17.235519c-2.507701,0.823385 -0.762345,4.115128 1.569192,3.608197c22.932463,-0.04043 45.867139,0.099201 68.797843,-0.101822c0.50772,-0.053272 1.079752,0.01898 1.540795,-0.206503l0,0.000002z" fill-opacity="null" stroke-opacity="null" stroke-width="0" stroke="#f2f2e3" fill="#e8efef"/>
  <path opacity="0.12" id="svg_12" d="m528.834679,334.014184c0,0.933083 -0.708685,1.689044 -1.583424,1.689044l-10.139816,0c-0.874734,0 -1.583421,-0.755958 -1.583421,-1.689044l0,-22.979384c0,-0.933011 0.708685,-1.689044 1.583421,-1.689044l10.139816,0c0.874739,0 1.583424,0.756032 1.583424,1.689044l0,22.979384zm-37.540403,0c0,0.933083 -0.708824,1.689044 -1.583424,1.689044l-10.139954,0c-0.874599,0 -1.583421,-0.755958 -1.583421,-1.689044l0,-22.979384c0,-0.933011 0.708822,-1.689044 1.583421,-1.689044l10.139954,0c0.874599,0 1.583424,0.756032 1.583424,1.689044l0,22.979384zm12.250272,-62.310968c-18.348509,0 -33.243246,15.744609 -33.471993,35.257332l5.808986,0c0.188363,-16.127481 12.499277,-29.139931 27.663007,-29.139931c15.163728,0 27.474648,13.01245 27.660809,29.139931l5.808851,0c-0.226416,-19.512723 -15.125535,-35.257332 -33.469662,-35.257332l0.000002,0zm-33.424901,53.131175l5.703579,0l0,-17.909762l-5.703579,0l0,17.909762zm61.038626,-17.912174l0,17.909839l5.914252,0l0,-17.909839l-5.914252,0z" fill-opacity="null" stroke-opacity="null" stroke-width="0" stroke="#f2f2e3" fill="#e8efef"/>
  <path opacity="0.12" id="svg_13" d="m523.911411,165.59396c0.325938,-0.914258 0.35485,-2.411762 0.065904,-3.331204l-0.956171,-3.03566c-0.288907,-0.919436 -1.573725,-1.803546 -2.856783,-1.964445l-8.812182,-1.102531c-1.28213,-0.160897 -3.382275,-0.155646 -4.662595,0.011748l-9.545363,1.245117c-1.283042,0.16739 -3.38224,0.184389 -4.669789,0.039245l-9.339527,-1.054201c0.011735,0.032698 0.032499,0.061508 0.04246,0.094207l6.392459,21.996233l2.925414,0.36616c1.282994,0.160918 3.380409,0.15434 4.663448,-0.011723l9.542652,-1.246425c1.28032,-0.166086 3.382256,-0.183079 4.669802,-0.037947l10.2469,1.157531c1.287548,0.145128 2.144424,-0.493131 1.909619,-1.4217l-1.147531,-4.499168c-0.236575,-0.927327 -0.163485,-2.432708 0.160672,-3.346969l1.370611,-3.858267l0,-0.000002zm-45.85348,-10.066861c-1.281181,0.196154 -2.100123,1.102517 -1.830159,2.02852l13.640926,46.933952l4.83501,0l-13.841367,-47.636288c-0.274476,-0.929938 -1.526803,-1.522401 -2.804406,-1.326184l-0.000003,0z" fill-opacity="null" stroke-opacity="null" stroke-width="0" stroke="#f2f2e3" fill="#e8efef"/>
 </g>
</svg>